<svg xmlns:xlink="http://www.w3.org/1999/xlink" xmlns="http://www.w3.org/2000/svg" width="240"
    height="133" viewBox="0 0 240 133" fill="none">
    <path
        d="M34.1405 13.7167C36.926 13.7167 39.184 11.4724 39.184 8.70402C39.184 5.9356 36.926 3.69136 34.1405 3.69136C31.3551 3.69136 29.097 5.9356 29.097 8.70402C29.097 11.4724 31.3551 13.7167 34.1405 13.7167Z"
        fill="#39CDCC"></path>
    <path
        d="M56.2544 54.9748C59.0399 54.9748 61.2979 52.7305 61.2979 49.9621C61.2979 47.1937 59.0399 44.9494 56.2544 44.9494C53.469 44.9494 51.2109 47.1937 51.2109 49.9621C51.2109 52.7305 53.469 54.9748 56.2544 54.9748Z"
        fill="#39CDCC"></path>
    <path
        d="M39.1841 44.5639C41.9696 44.5639 44.2276 42.3196 44.2276 39.5512C44.2276 36.7828 41.9696 34.5385 39.1841 34.5385C36.3987 34.5385 34.1406 36.7828 34.1406 39.5512C34.1406 42.3196 36.3987 44.5639 39.1841 44.5639Z"
        fill="#39CDCC"></path>
    <path
        d="M40.7928 110.701C40.7037 110.556 38.6044 107.072 37.8766 99.838C37.2091 93.2009 37.6383 82.0135 43.4759 66.408C54.5351 36.8445 40.9273 12.9911 40.7882 12.7535L41.4596 12.3664C41.4948 12.4266 45.0062 18.5083 47.0805 28.1925C49.8213 41.0317 48.8233 54.3813 44.2033 66.6769C33.1631 96.1899 41.3709 110.161 41.455 110.299L40.7928 110.701Z"
        fill="#C0CBE2"></path>
    <path
        d="M36.4683 11.4031C35.3941 11.4031 34.344 11.0865 33.4508 10.4934C32.5576 9.90021 31.8614 9.05712 31.4503 8.07072C31.0392 7.08432 30.9317 5.99891 31.1412 4.95175C31.3508 3.90459 31.8681 2.94272 32.6277 2.18776C33.3873 1.4328 34.3551 0.918667 35.4087 0.710374C36.4623 0.502081 37.5544 0.608978 38.5469 1.01756C39.5393 1.42614 40.3876 2.11805 40.9844 3.00578C41.5812 3.89352 41.8998 4.93722 41.8998 6.0049C41.8982 7.43611 41.3254 8.80824 40.3072 9.82026C39.2889 10.8323 37.9083 11.4015 36.4683 11.4031ZM36.4683 1.37783C35.5476 1.37783 34.6475 1.6492 33.8819 2.15763C33.1163 2.66606 32.5195 3.3887 32.1672 4.23419C31.8148 5.07968 31.7226 6.01003 31.9022 6.90759C32.0819 7.80516 32.5253 8.62963 33.1764 9.27673C33.8275 9.92384 34.657 10.3645 35.5601 10.5431C36.4632 10.7216 37.3992 10.63 38.2499 10.2797C39.1006 9.92954 39.8277 9.33647 40.3393 8.57556C40.8508 7.81464 41.1239 6.92004 41.1239 6.0049C41.1225 4.77815 40.6315 3.60205 39.7587 2.73461C38.886 1.86717 37.7026 1.37923 36.4683 1.37783Z"
        fill="#C0CBE2"></path>
    <path
        d="M52.3748 29.5259C55.1603 29.5259 57.4183 27.2816 57.4183 24.5132C57.4183 21.7448 55.1603 19.5005 52.3748 19.5005C49.5894 19.5005 47.3313 21.7448 47.3313 24.5132C47.3313 27.2816 49.5894 29.5259 52.3748 29.5259Z"
        fill="#C0CBE2"></path>
    <path
        d="M41.5119 42.2503C40.4376 42.2503 39.3875 41.9337 38.4943 41.3405C37.6011 40.7474 36.905 39.9043 36.4939 38.9179C36.0828 37.9315 35.9752 36.8461 36.1848 35.7989C36.3944 34.7517 36.9117 33.7899 37.6713 33.0349C38.4309 32.2799 39.3987 31.7658 40.4523 31.5575C41.5059 31.3492 42.598 31.4561 43.5904 31.8647C44.5829 32.2733 45.4312 32.9652 46.028 33.8529C46.6248 34.7407 46.9434 35.7844 46.9434 36.8521C46.9418 38.2833 46.369 39.6554 45.3507 40.6674C44.3325 41.6795 42.9519 42.2487 41.5119 42.2503ZM41.5119 32.225C40.5911 32.225 39.691 32.4963 38.9254 33.0048C38.1598 33.5132 37.5631 34.2359 37.2107 35.0814C36.8584 35.9268 36.7662 36.8572 36.9458 37.7548C37.1254 38.6523 37.5688 39.4768 38.2199 40.1239C38.871 40.771 39.7006 41.2117 40.6036 41.3902C41.5067 41.5688 42.4428 41.4771 43.2935 41.1269C44.1442 40.7767 44.8713 40.1836 45.3828 39.4227C45.8944 38.6618 46.1674 37.7672 46.1674 36.8521C46.1661 35.6253 45.6751 34.4492 44.8023 33.5817C43.9295 32.7143 42.7462 32.2263 41.5119 32.225V32.225Z"
        fill="#C0CBE2"></path>
    <path
        d="M54.7026 52.6612C53.6283 52.6612 52.5782 52.3446 51.685 51.7514C50.7918 51.1583 50.0957 50.3152 49.6846 49.3288C49.2735 48.3424 49.1659 47.257 49.3755 46.2098C49.5851 45.1627 50.1024 44.2008 50.862 43.4458C51.6216 42.6909 52.5894 42.1767 53.643 41.9684C54.6966 41.7602 55.7886 41.867 56.7811 42.2756C57.7736 42.6842 58.6219 43.3761 59.2187 44.2639C59.8155 45.1516 60.134 46.1953 60.134 47.263C60.1324 48.6942 59.5597 50.0663 58.5414 51.0783C57.5232 52.0903 56.1426 52.6596 54.7026 52.6612ZM54.7026 42.6359C53.7818 42.6359 52.8817 42.9073 52.1161 43.4157C51.3505 43.9241 50.7538 44.6468 50.4014 45.4923C50.0491 46.3378 49.9569 47.2681 50.1365 48.1657C50.3161 49.0632 50.7595 49.8877 51.4106 50.5348C52.0617 51.1819 52.8912 51.6226 53.7943 51.8011C54.6974 51.9797 55.6335 51.888 56.4842 51.5378C57.3349 51.1876 58.062 50.5945 58.5735 49.8336C59.0851 49.0727 59.3581 48.1781 59.3581 47.263C59.3567 46.0362 58.8658 44.8601 57.993 43.9926C57.1202 43.1252 55.9369 42.6373 54.7026 42.6359Z"
        fill="#C0CBE2"></path>
    <path
        d="M37.6322 68.4704C40.4177 68.4704 42.6757 66.2262 42.6757 63.4577C42.6757 60.6893 40.4177 58.4451 37.6322 58.4451C34.8468 58.4451 32.5887 60.6893 32.5887 63.4577C32.5887 66.2262 34.8468 68.4704 37.6322 68.4704Z"
        fill="#C0CBE2"></path>
    <path d="M43.8397 110.885C43.8397 110.885 38.7962 98.5464 53.9267 89.2922L43.8397 110.885Z"
        fill="#C0CBE2"></path>
    <path d="M37.637 110.661C37.637 110.661 35.3416 97.5401 17.576 97.6525L37.637 110.661Z"
        fill="#C0CBE2"></path>
    <path
        d="M219.717 115.512H133.871C133.871 115.512 132.131 90.1466 142.427 89.8584C152.723 89.5702 151.563 101.1 164.469 85.2464C177.374 69.3929 193.035 70.2576 195.066 79.6256C197.096 88.9936 191.15 96.4881 202.026 94.1821C212.902 91.8761 228.563 97.9293 219.717 115.512Z"
        fill="#39CDCC"></path>
    <path
        d="M175.345 115.518L175.056 115.507C175.731 98.806 179.25 88.0757 182.084 82.0151C185.16 75.4343 188.124 72.7703 188.154 72.7441L188.347 72.9596C188.317 72.9854 185.388 75.623 182.336 82.1592C179.518 88.1942 176.019 98.8804 175.345 115.518Z"
        fill="#F2F2F2"></path>
    <path
        d="M206.415 115.553L206.137 115.472C209.489 104.035 217.384 96.8146 217.463 96.743L217.658 96.9563C217.579 97.0274 209.744 104.197 206.415 115.553Z"
        fill="#F2F2F2"></path>
    <path
        d="M147.393 115.532L147.105 115.492C148.243 107.339 146.188 101.014 144.264 97.1429C142.181 92.9518 139.804 90.6627 139.78 90.6401L139.981 90.4321C140.005 90.455 142.419 92.7793 144.524 97.0153C146.466 100.922 148.54 107.306 147.393 115.532Z"
        fill="#F2F2F2"></path>
    <path
        d="M231.368 115.898H124.612L124.588 115.538C124.526 114.644 123.164 93.5539 130.04 86.0286C131.577 84.3464 133.429 83.4634 135.543 83.4043C140.025 83.2775 142.841 84.946 145.113 86.2852C149.395 88.8098 152.224 90.4778 162.508 77.8441C173.65 64.1577 185.671 61.2133 192.581 62.8505C197.046 63.9086 200.124 66.899 201.024 71.055C201.877 74.9904 201.605 78.6881 201.387 81.6593C201.154 84.8384 200.969 87.3494 202.283 88.4873C203.38 89.4368 205.568 89.5232 209.171 88.759C216.499 87.2053 226.724 88.5348 231.856 95.1252C234.617 98.6708 236.792 105.116 231.475 115.685L231.368 115.898ZM125.341 115.127H230.888C234.85 107.138 234.973 100.388 231.242 95.5972C226.534 89.5515 216.657 87.9602 209.333 89.5132C205.419 90.3434 203.086 90.2063 201.773 89.0687C200.167 87.6778 200.364 84.9971 200.613 81.6032C200.828 78.6812 201.095 75.0446 200.266 71.2173C199.431 67.3633 196.564 64.5872 192.401 63.6008C185.711 62.0144 174.026 64.9217 163.111 78.3291C152.405 91.4805 149.18 89.5797 144.717 86.9486C142.418 85.593 139.807 84.0555 135.565 84.175C133.67 84.2281 132.004 85.0262 130.614 86.5471C124.435 93.3102 125.189 112.275 125.341 115.127Z"
        fill="#C0CBE2"></path>
    <path
        d="M119.88 132.864C186.088 132.864 239.76 126.476 239.76 118.597C239.76 110.718 186.088 104.33 119.88 104.33C53.6722 104.33 0 110.718 0 118.597C0 126.476 53.6722 132.864 119.88 132.864Z"
        fill="#545F7D"></path>
</svg>