<svg preserveAspectRatio="none" width="100%" height="100%" overflow="visible" style="display: block;" viewBox="0 0 14 14" fill="none" xmlns="http://www.w3.org/2000/svg">
<g id="np_user_2995993_000000 1" clip-path="url(#clip0_0_6)">
<path id="Vector" d="M10.6969 12.9022L10.6998 12.8993L10.8209 12.9882L10.8228 12.9862L10.8248 12.9833L13.359 9.44422C13.472 9.28662 13.454 9.08197 13.3287 8.94715L13.2682 8.89343C13.2031 8.84631 13.1299 8.8238 13.0582 8.82019L13.0494 8.8114L12.9732 8.8241C12.8718 8.84042 12.7807 8.89615 12.7174 8.98425L10.1822 12.5194C10.0897 12.6233 9.97175 12.6517 9.90585 12.6561H9.90488C9.8369 12.6609 9.70849 12.6479 9.60117 12.5487L9.59824 12.5458L7.9664 10.954C7.8081 10.7992 7.56287 10.8033 7.40878 10.9608C7.25453 11.1186 7.25766 11.3629 7.41464 11.5175H7.41562L9.05038 13.1132L9.05234 13.1151C9.27515 13.3271 9.57355 13.4452 9.87949 13.4452C9.89993 13.4452 9.92399 13.4436 9.94687 13.4423V13.4432H9.95859C10.2887 13.4215 10.5984 13.2598 10.8072 13.0028L10.8101 13.0009L10.815 12.995C10.816 12.9938 10.8162 12.992 10.817 12.9911H10.818L10.817 12.9921L10.7115 12.913L10.6969 12.9022ZM10.6969 12.9022L10.8014 13.0057C10.8 13.0069 10.7992 13.0092 10.7975 13.0106C10.7944 13.013 10.7855 13.0198 10.773 13.0262C10.7664 13.0294 10.7494 13.0361 10.7389 13.0389C10.7225 13.0418 10.6812 13.041 10.6568 13.035C10.6422 13.0283 10.6229 13.0143 10.606 12.9989C10.6112 12.9939 10.6176 12.9903 10.6226 12.9852L10.6949 12.9042L10.6969 12.9022ZM6.9996 0.554567C8.8559 0.554567 10.3607 2.06075 10.3609 3.91687C10.3609 4.94967 9.89447 5.87309 9.16171 6.49011L9.01132 6.60925L8.83066 6.74402L9.04452 6.81433C9.86911 7.08529 10.6376 7.52163 11.3014 8.10144C11.468 8.24718 11.4846 8.49077 11.3394 8.65711C11.1932 8.82347 10.9486 8.83907 10.7828 8.69422C9.83338 7.8647 8.64057 7.37289 7.38827 7.28797L7.1373 7.27625H7.13046L6.99863 7.27918L6.86777 7.27625H6.86093L6.61288 7.28797C4.06543 7.46036 1.89329 9.32365 1.36777 11.8466V11.8475C1.32757 12.0396 1.37686 12.2408 1.50058 12.3934L1.50449 12.3983C1.57956 12.4893 1.74909 12.6327 2.00156 12.6327H6.51327C6.73396 12.6329 6.90683 12.8064 6.90683 13.0272C6.90673 13.2492 6.73324 13.4206 6.51327 13.4208H2.00156C1.56705 13.4208 1.16324 13.2292 0.889251 12.8925C0.613517 12.5533 0.507766 12.1163 0.597259 11.6874C0.898948 10.2391 1.69769 8.91981 2.84726 7.97449C3.47431 7.45886 4.19138 7.06755 4.95468 6.81629L5.16855 6.745L4.98886 6.61023C4.16976 5.99654 3.63732 5.02001 3.6373 3.91785C3.6373 2.10422 5.07423 0.626452 6.8707 0.558474L6.87167 0.554567H6.9996ZM6.73593 1.35633C5.44152 1.48867 4.42363 2.58894 4.42343 3.91687V4.03504H4.46249L4.47617 4.1698C4.6051 5.4243 5.6028 6.42518 6.86874 6.48816L6.87851 6.48914H6.87949C6.91727 6.48863 6.96085 6.48718 6.9996 6.48718C7.03845 6.48719 7.07884 6.48705 7.1207 6.48816H7.12949L7.38046 6.46375C8.61878 6.27902 9.57382 5.20456 9.57382 3.91687C9.57361 2.49988 8.41525 1.34363 6.99863 1.34363L6.73593 1.35633Z" fill="var(--fill-0, #545F7D)" stroke="var(--stroke-0, #545F7D)" stroke-width="0.3"/>
</g>
<defs>
<clipPath id="clip0_0_6">
<rect width="14" height="14" fill="white"/>
</clipPath>
</defs>
</svg>
