<svg preserveAspectRatio="none" width="100%" height="100%" overflow="visible" style="display: block;" viewBox="0 0 16 22" fill="none" xmlns="http://www.w3.org/2000/svg">
<g id="clipboard-list 1" clip-path="url(#clip0_0_322)">
<path id="Vector" opacity="0.4" d="M14 2.66667H10.6667C11.3739 2.66667 12.0522 2.94762 12.5523 3.44772C13.0524 3.94781 13.3333 4.62609 13.3333 5.33333H2.66667C2.66667 4.62609 2.94762 3.94781 3.44772 3.44772C3.94781 2.94762 4.62609 2.66667 5.33333 2.66667H2C1.46957 2.66667 0.960859 2.87738 0.585786 3.25245C0.210714 3.62753 0 4.13623 0 4.66667L0 19.3333C0 19.8638 0.210714 20.3725 0.585786 20.7475C0.960859 21.1226 1.46957 21.3333 2 21.3333H14C14.5304 21.3333 15.0391 21.1226 15.4142 20.7475C15.7893 20.3725 16 19.8638 16 19.3333V4.66667C16 4.13623 15.7893 3.62753 15.4142 3.25245C15.0391 2.87738 14.5304 2.66667 14 2.66667V2.66667ZM4 17.6667C3.80222 17.6667 3.60888 17.608 3.44443 17.4981C3.27998 17.3883 3.15181 17.2321 3.07612 17.0493C3.00043 16.8666 2.98063 16.6656 3.01921 16.4716C3.0578 16.2776 3.15304 16.0994 3.29289 15.9596C3.43275 15.8197 3.61093 15.7245 3.80491 15.6859C3.99889 15.6473 4.19996 15.6671 4.38268 15.7428C4.56541 15.8185 4.72159 15.9466 4.83147 16.1111C4.94135 16.2755 5 16.4689 5 16.6667C5.00033 16.7981 4.97469 16.9283 4.92455 17.0497C4.87441 17.1712 4.80077 17.2816 4.70784 17.3745C4.61492 17.4674 4.50455 17.5411 4.38307 17.5912C4.2616 17.6414 4.13141 17.667 4 17.6667V17.6667ZM4 13.6667C3.80222 13.6667 3.60888 13.608 3.44443 13.4981C3.27998 13.3883 3.15181 13.2321 3.07612 13.0493C3.00043 12.8666 2.98063 12.6656 3.01921 12.4716C3.0578 12.2776 3.15304 12.0994 3.29289 11.9596C3.43275 11.8197 3.61093 11.7245 3.80491 11.6859C3.99889 11.6473 4.19996 11.6671 4.38268 11.7428C4.56541 11.8185 4.72159 11.9466 4.83147 12.1111C4.94135 12.2755 5 12.4689 5 12.6667C5.00033 12.7981 4.97469 12.9283 4.92455 13.0497C4.87441 13.1712 4.80077 13.2816 4.70784 13.3745C4.61492 13.4674 4.50455 13.5411 4.38307 13.5912C4.2616 13.6414 4.13141 13.667 4 13.6667V13.6667ZM4 9.66667C3.80222 9.66667 3.60888 9.60802 3.44443 9.49814C3.27998 9.38826 3.15181 9.23208 3.07612 9.04935C3.00043 8.86662 2.98063 8.66556 3.01921 8.47158C3.0578 8.2776 3.15304 8.09941 3.29289 7.95956C3.43275 7.81971 3.61093 7.72447 3.80491 7.68588C3.99889 7.6473 4.19996 7.6671 4.38268 7.74279C4.56541 7.81847 4.72159 7.94665 4.83147 8.1111C4.94135 8.27555 5 8.46889 5 8.66667C5.00033 8.79808 4.97469 8.92827 4.92455 9.04974C4.87441 9.17121 4.80077 9.28158 4.70784 9.37451C4.61492 9.46743 4.50455 9.54108 4.38307 9.59122C4.2616 9.64136 4.13141 9.667 4 9.66667V9.66667ZM13.3333 17C13.3333 17.0884 13.2982 17.1732 13.2357 17.2357C13.1732 17.2982 13.0884 17.3333 13 17.3333H7C6.91159 17.3333 6.82681 17.2982 6.7643 17.2357C6.70179 17.1732 6.66667 17.0884 6.66667 17V16.3333C6.66667 16.2449 6.70179 16.1601 6.7643 16.0976C6.82681 16.0351 6.91159 16 7 16H13C13.0884 16 13.1732 16.0351 13.2357 16.0976C13.2982 16.1601 13.3333 16.2449 13.3333 16.3333V17ZM13.3333 13C13.3333 13.0884 13.2982 13.1732 13.2357 13.2357C13.1732 13.2982 13.0884 13.3333 13 13.3333H7C6.91159 13.3333 6.82681 13.2982 6.7643 13.2357C6.70179 13.1732 6.66667 13.0884 6.66667 13V12.3333C6.66667 12.2449 6.70179 12.1601 6.7643 12.0976C6.82681 12.0351 6.91159 12 7 12H13C13.0884 12 13.1732 12.0351 13.2357 12.0976C13.2982 12.1601 13.3333 12.2449 13.3333 12.3333V13ZM13.3333 9C13.3333 9.08841 13.2982 9.17319 13.2357 9.2357C13.1732 9.29821 13.0884 9.33333 13 9.33333H7C6.91159 9.33333 6.82681 9.29821 6.7643 9.2357C6.70179 9.17319 6.66667 9.08841 6.66667 9V8.33333C6.66667 8.24493 6.70179 8.16014 6.7643 8.09763C6.82681 8.03512 6.91159 8 7 8H13C13.0884 8 13.1732 8.03512 13.2357 8.09763C13.2982 8.16014 13.3333 8.24493 13.3333 8.33333V9Z" fill="var(--fill-0, #213F7D)"/>
<path id="Vector_2" d="M4 15.6667C3.80222 15.6667 3.60888 15.7253 3.44443 15.8352C3.27998 15.9451 3.15181 16.1013 3.07612 16.284C3.00043 16.4667 2.98063 16.6678 3.01921 16.8618C3.0578 17.0557 3.15304 17.2339 3.29289 17.3738C3.43275 17.5136 3.61093 17.6089 3.80491 17.6475C3.99889 17.686 4.19996 17.6662 4.38268 17.5905C4.56541 17.5149 4.72159 17.3867 4.83147 17.2222C4.94135 17.0578 5 16.8644 5 16.6667C5.00033 16.5353 4.97469 16.4051 4.92455 16.2836C4.87441 16.1621 4.80077 16.0517 4.70784 15.9588C4.61492 15.8659 4.50455 15.7923 4.38307 15.7421C4.2616 15.692 4.13141 15.6663 4 15.6667V15.6667ZM4 11.6667C3.80222 11.6667 3.60888 11.7253 3.44443 11.8352C3.27998 11.9451 3.15181 12.1013 3.07612 12.284C3.00043 12.4667 2.98063 12.6678 3.01921 12.8618C3.0578 13.0557 3.15304 13.2339 3.29289 13.3738C3.43275 13.5136 3.61093 13.6089 3.80491 13.6475C3.99889 13.686 4.19996 13.6662 4.38268 13.5905C4.56541 13.5149 4.72159 13.3867 4.83147 13.2222C4.94135 13.0578 5 12.8644 5 12.6667C5.00033 12.5353 4.97469 12.4051 4.92455 12.2836C4.87441 12.1621 4.80077 12.0517 4.70784 11.9588C4.61492 11.8659 4.50455 11.7923 4.38307 11.7421C4.2616 11.692 4.13141 11.6663 4 11.6667V11.6667ZM4 7.66667C3.80222 7.66667 3.60888 7.72532 3.44443 7.8352C3.27998 7.94508 3.15181 8.10126 3.07612 8.28398C3.00043 8.46671 2.98063 8.66778 3.01921 8.86176C3.0578 9.05574 3.15304 9.23392 3.29289 9.37377C3.43275 9.51363 3.61093 9.60887 3.80491 9.64745C3.99889 9.68604 4.19996 9.66623 4.38268 9.59055C4.56541 9.51486 4.72159 9.38669 4.83147 9.22224C4.94135 9.05779 5 8.86445 5 8.66667C5.00033 8.53525 4.97469 8.40507 4.92455 8.28359C4.87441 8.16212 4.80077 8.05175 4.70784 7.95883C4.61492 7.8659 4.50455 7.79225 4.38307 7.74212C4.2616 7.69198 4.13141 7.66634 4 7.66667V7.66667ZM10.6667 2.66667C10.6667 1.95942 10.3857 1.28115 9.88562 0.781049C9.38552 0.280952 8.70724 0 8 0C7.29276 0 6.61448 0.280952 6.11438 0.781049C5.61428 1.28115 5.33333 1.95942 5.33333 2.66667C4.62609 2.66667 3.94781 2.94762 3.44772 3.44772C2.94762 3.94781 2.66667 4.62609 2.66667 5.33333H13.3333C13.3333 4.62609 13.0524 3.94781 12.5523 3.44772C12.0522 2.94762 11.3739 2.66667 10.6667 2.66667ZM8 3.66667C7.80222 3.66667 7.60888 3.60802 7.44443 3.49814C7.27998 3.38825 7.15181 3.23208 7.07612 3.04935C7.00043 2.86662 6.98063 2.66556 7.01921 2.47158C7.0578 2.2776 7.15304 2.09941 7.29289 1.95956C7.43275 1.81971 7.61093 1.72447 7.80491 1.68588C7.99889 1.6473 8.19996 1.6671 8.38268 1.74279C8.56541 1.81847 8.72159 1.94665 8.83147 2.1111C8.94135 2.27555 9 2.46889 9 2.66667C9.00033 2.79808 8.97469 2.92827 8.92455 3.04974C8.87441 3.17121 8.80077 3.28158 8.70784 3.37451C8.61492 3.46743 8.50455 3.54108 8.38307 3.59122C8.2616 3.64136 8.13141 3.667 8 3.66667V3.66667Z" fill="var(--fill-0, #213F7D)"/>
</g>
<defs>
<clipPath id="clip0_0_322">
<rect width="16" height="21.3333" fill="white"/>
</clipPath>
</defs>
</svg>
