<svg preserveAspectRatio="none" width="100%" height="100%" overflow="visible" style="display: block;" viewBox="0 0 30 30" fill="none" xmlns="http://www.w3.org/2000/svg">
<g id="np_back_3007750_000000 1">
<path id="Vector" d="M1.94998 15.3564C1.99452 15.4712 2.06131 15.5767 2.14686 15.6658L5.89686 19.4158C6.07264 19.5927 6.31287 19.6935 6.5625 19.6935C6.81213 19.6935 7.05234 19.5927 7.22814 19.4158C7.40509 19.24 7.50587 18.9997 7.50587 18.7501C7.50587 18.5005 7.40509 18.2603 7.22814 18.0845L5.07189 15.9376H27.6562C28.1742 15.9376 28.5937 15.5181 28.5937 15.0001C28.5937 14.4821 28.1742 14.0626 27.6562 14.0626H5.07189L7.22814 11.9158C7.59612 11.5478 7.59612 10.9525 7.22814 10.5845C6.86016 10.2165 6.26487 10.2165 5.89689 10.5845L2.14689 14.3345C2.06134 14.4236 1.99455 14.529 1.95001 14.6439C1.90197 14.7564 1.87619 14.8771 1.87501 15.0001C1.87619 15.1232 1.90197 15.2439 1.95001 15.3564L1.94998 15.3564Z" fill="var(--fill-0, #545F7D)"/>
</g>
</svg>
