<svg preserveAspectRatio="none" width="100%" height="100%" overflow="visible" style="display: block;" viewBox="0 0 15 16" fill="none" xmlns="http://www.w3.org/2000/svg">
<g id="Group">
<path id="Vector" d="M14.352 1.76H12.0638V0.368128C12.0638 0.16 11.9038 0 11.6957 0H10.0164C9.80822 0 9.64822 0.16 9.64822 0.368128V1.76H5.0719V0.368128C5.0719 0.16 4.9119 0 4.70378 0H3.02378C2.81565 0 2.65565 0.16 2.65565 0.368128V1.76H0.368128C0.176256 1.76 0 1.92 0 2.12813V14.8481C0 15.0563 0.16 15.2163 0.368128 15.2163H14.3518C14.5437 15.2163 14.7199 15.0563 14.7199 14.8481V2.12813C14.7199 1.92 14.5437 1.76 14.3518 1.76H14.352ZM10.3683 0.736256H11.3283V2.8481H10.3683V0.736256ZM3.37648 0.736256H4.33648V2.8481H3.37648V0.736256ZM13.984 14.4638H0.73648V5.10378H13.9846L13.984 14.4638Z" fill="var(--fill-0, #545F7D)"/>
<path id="Vector_2" d="M2.56015 12.8163H4.27199C4.36824 12.8163 4.44824 12.7363 4.44824 12.6401V10.9119C4.44824 10.8157 4.36824 10.7356 4.27199 10.7356L2.56015 10.7363C2.4639 10.7363 2.38389 10.8163 2.38389 10.9125V12.6244C2.38389 12.7362 2.46389 12.8162 2.56015 12.8162V12.8163Z" fill="var(--fill-0, #545F7D)"/>
<path id="Vector_3" d="M6.49656 12.8163H8.2084C8.30465 12.8163 8.38466 12.7363 8.38466 12.6401L8.38403 10.9119C8.38403 10.8157 8.30403 10.7356 8.20778 10.7356L6.49658 10.7363C6.40033 10.7363 6.32032 10.8163 6.32032 10.9125V12.6244C6.30407 12.7362 6.38407 12.8162 6.49658 12.8162L6.49656 12.8163Z" fill="var(--fill-0, #545F7D)"/>
<path id="Vector_4" d="M10.4166 12.8163H12.1284C12.2247 12.8163 12.3047 12.7363 12.3047 12.6401L12.304 10.9119C12.304 10.8157 12.224 10.7356 12.1278 10.7356L10.4166 10.7363C10.3203 10.7363 10.2403 10.8163 10.2403 10.9125V12.6244C10.2241 12.7362 10.3041 12.8162 10.4166 12.8162L10.4166 12.8163Z" fill="var(--fill-0, #545F7D)"/>
<path id="Vector_5" d="M2.56015 8.86368H4.27199C4.36824 8.86368 4.44824 8.78368 4.44824 8.68742V6.97622C4.44824 6.87997 4.36824 6.79997 4.27199 6.79997H2.56015C2.4639 6.79997 2.38389 6.87997 2.38389 6.97622V8.68806C2.38389 8.78369 2.46389 8.86369 2.56015 8.86369V8.86368Z" fill="var(--fill-0, #545F7D)"/>
<path id="Vector_6" d="M6.49656 8.86368H8.2084C8.30465 8.86368 8.38466 8.78368 8.38466 8.68742L8.38403 6.97622C8.38403 6.87997 8.30403 6.79997 8.20778 6.79997H6.49658C6.40033 6.79997 6.32032 6.87997 6.32032 6.97622V8.68806C6.30407 8.78369 6.38407 8.86369 6.49658 8.86369L6.49656 8.86368Z" fill="var(--fill-0, #545F7D)"/>
<path id="Vector_7" d="M10.4166 8.86368H12.1284C12.2247 8.86368 12.3047 8.78368 12.3047 8.68742L12.304 6.97622C12.304 6.87997 12.224 6.79997 12.1278 6.79997H10.4166C10.3203 6.79997 10.2403 6.87997 10.2403 6.97622V8.68806C10.2241 8.78369 10.3041 8.86369 10.4166 8.86369L10.4166 8.86368Z" fill="var(--fill-0, #545F7D)"/>
</g>
</svg>
