<svg preserveAspectRatio="none" width="100%" height="100%" overflow="visible" style="display: block;" viewBox="0 0 16 13" fill="none" xmlns="http://www.w3.org/2000/svg">
<g id="users 1">
<path id="Vector" opacity="0.4" d="M2.4 5.59997C2.71645 5.59997 3.02579 5.50613 3.28891 5.33032C3.55203 5.15451 3.75711 4.90463 3.87821 4.61226C3.99931 4.3199 4.03099 3.9982 3.96926 3.68783C3.90752 3.37746 3.75513 3.09236 3.53137 2.8686C3.30761 2.64484 3.02251 2.49245 2.71214 2.43071C2.40177 2.36898 2.08007 2.40066 1.78771 2.52176C1.49534 2.64286 1.24546 2.84794 1.06965 3.11106C0.893838 3.37418 0.8 3.68352 0.8 3.99997C0.800397 4.4242 0.969096 4.83093 1.26907 5.1309C1.56904 5.43088 1.97578 5.59957 2.4 5.59997V5.59997ZM14.4 6.39997H12.8C12.3774 6.39951 11.9719 6.56675 11.6725 6.86497C12.1789 7.14057 12.613 7.532 12.9392 8.00731C13.2655 8.48263 13.4748 9.02836 13.55 9.59997H15.2C15.4122 9.59997 15.6157 9.51569 15.7657 9.36566C15.9157 9.21563 16 9.01214 16 8.79997V7.99997C15.9996 7.57575 15.8309 7.16901 15.5309 6.86904C15.231 6.56907 14.8242 6.40037 14.4 6.39997ZM1.6 6.39997C1.17578 6.40037 0.76904 6.56907 0.469068 6.86904C0.169096 7.16901 0.000397152 7.57575 0 7.99997V8.79997C0 9.01214 0.0842855 9.21563 0.234315 9.36566C0.384344 9.51569 0.587827 9.59997 0.8 9.59997H2.4475C2.52367 9.02835 2.73362 8.48277 3.06028 8.00754C3.38694 7.53232 3.82111 7.14086 4.3275 6.86497C4.02809 6.56675 3.62259 6.39951 3.2 6.39997H1.6ZM13.6 5.59997C13.9165 5.59997 14.2258 5.50613 14.4889 5.33032C14.752 5.15451 14.9571 4.90463 15.0782 4.61226C15.1993 4.3199 15.231 3.9982 15.1693 3.68783C15.1075 3.37746 14.9551 3.09236 14.7314 2.8686C14.5076 2.64484 14.2225 2.49245 13.9121 2.43071C13.6018 2.36898 13.2801 2.40066 12.9877 2.52176C12.6953 2.64286 12.4455 2.84794 12.2696 3.11106C12.0938 3.37418 12 3.68352 12 3.99997C12.0004 4.4242 12.1691 4.83093 12.4691 5.1309C12.769 5.43088 13.1758 5.59957 13.6 5.59997Z" fill="var(--fill-0, #213F7D)"/>
<path id="Vector_2" d="M9.92 7.20001H9.7125C9.17911 7.46072 8.59369 7.59746 8 7.60001C7.385 7.60001 6.81 7.45001 6.2875 7.20001H6.08C5.31624 7.20021 4.58381 7.5037 4.04375 8.04376C3.50369 8.58383 3.2002 9.31625 3.2 10.08V10.8C3.2 11.1183 3.32643 11.4235 3.55147 11.6485C3.77652 11.8736 4.08174 12 4.4 12H11.6C11.9183 12 12.2235 11.8736 12.4485 11.6485C12.6736 11.4235 12.8 11.1183 12.8 10.8V10.08C12.7998 9.31625 12.4963 8.58383 11.9562 8.04376C11.4162 7.5037 10.6838 7.20021 9.92 7.20001V7.20001ZM8 6.40001C8.55379 6.40001 9.09514 6.23579 9.5556 5.92813C10.0161 5.62046 10.3749 5.18316 10.5869 4.67152C10.7988 4.15989 10.8542 3.59691 10.7462 3.05376C10.6382 2.51061 10.3715 2.0117 9.9799 1.62011C9.58831 1.22853 9.0894 0.961851 8.54625 0.853812C8.00311 0.745774 7.44012 0.801223 6.92849 1.01315C6.41685 1.22507 5.97955 1.58396 5.67189 2.04441C5.36422 2.50487 5.2 3.04622 5.2 3.60001C5.1998 3.96777 5.27209 4.33196 5.41274 4.67176C5.55338 5.01156 5.75962 5.32031 6.01966 5.58035C6.2797 5.84039 6.58845 6.04663 6.92825 6.18728C7.26805 6.32792 7.63224 6.40021 8 6.40001Z" fill="var(--fill-0, #213F7D)"/>
</g>
</svg>
