<svg preserveAspectRatio="none" width="100%" height="100%" overflow="visible" style="display: block;" viewBox="0 0 16 15" fill="none" xmlns="http://www.w3.org/2000/svg">
<g id="home 1" clip-path="url(#clip0_0_386)">
<path id="Vector" opacity="0.4" d="M9.33333 12.8775V10.2222C9.33333 10.1043 9.28651 9.99128 9.20316 9.90793C9.11981 9.82458 9.00676 9.77775 8.88889 9.77775H7.11111C6.99324 9.77775 6.88019 9.82458 6.79684 9.90793C6.71349 9.99128 6.66667 10.1043 6.66667 10.2222V12.8808C6.66667 12.9983 6.62015 13.111 6.53728 13.1943C6.45441 13.2776 6.34193 13.3247 6.22444 13.3253L3.11111 13.3333C2.99324 13.3333 2.88019 13.2865 2.79684 13.2031C2.71349 13.1198 2.66667 13.0067 2.66667 12.8889V8.33497L7.78861 4.11692C7.84881 4.0684 7.92379 4.04194 8.00111 4.04194C8.07843 4.04194 8.15342 4.0684 8.21361 4.11692L13.3333 8.33331V12.8889C13.3333 13.0067 13.2865 13.1198 13.2032 13.2031C13.1198 13.2865 13.0068 13.3333 12.8889 13.3333L9.77778 13.3247C9.71918 13.3247 9.66116 13.3131 9.60705 13.2906C9.55295 13.2681 9.50383 13.2351 9.46252 13.1935C9.42121 13.152 9.38854 13.1027 9.36636 13.0484C9.34419 12.9942 9.33297 12.9361 9.33333 12.8775Z" fill="var(--fill-0, #213F7D)"/>
<path id="Vector_2" d="M15.9255 7.45417L15.2172 8.31528C15.1894 8.34913 15.1552 8.37718 15.1165 8.39781C15.0779 8.41843 15.0356 8.43124 14.992 8.4355C14.9484 8.43976 14.9043 8.43538 14.8624 8.42261C14.8205 8.40985 14.7816 8.38895 14.7477 8.36111L8.21359 2.97806C8.1534 2.92953 8.07841 2.90308 8.00109 2.90308C7.92378 2.90308 7.84879 2.92953 7.78859 2.97806L1.25473 8.36111C1.18643 8.41725 1.09864 8.44396 1.01065 8.43536C0.922666 8.42677 0.841698 8.38357 0.785561 8.31528L0.0772295 7.45417C0.0209649 7.38601 -0.0059308 7.2983 0.00245561 7.21032C0.010842 7.12234 0.053824 7.0413 0.121952 6.985L7.15248 1.19444C7.39115 0.99805 7.69062 0.89067 7.9997 0.89067C8.30878 0.89067 8.60826 0.99805 8.84692 1.19444L11.3333 3.23917V1.22222C11.3333 1.13382 11.3684 1.04903 11.4309 0.98652C11.4934 0.924008 11.5782 0.888889 11.6666 0.888889H13.2222C13.3106 0.888889 13.3954 0.924008 13.4579 0.98652C13.5204 1.04903 13.5555 1.13382 13.5555 1.22222V5.06972L15.8777 6.98389C15.9119 7.01156 15.9402 7.0457 15.961 7.08435C15.9819 7.123 15.995 7.16539 15.9994 7.2091C16.0038 7.2528 15.9996 7.29695 15.9869 7.33901C15.9742 7.38106 15.9534 7.4202 15.9255 7.45417V7.45417Z" fill="var(--fill-0, #213F7D)"/>
</g>
<defs>
<clipPath id="clip0_0_386">
<rect width="16" height="14.2222" fill="white"/>
</clipPath>
</defs>
</svg>
