<svg preserveAspectRatio="none" width="100%" height="100%" overflow="visible" style="display: block;" viewBox="0 0 20 20" fill="none" xmlns="http://www.w3.org/2000/svg">
<g id="ic-more-vert-18px" clip-path="url(#clip0_0_24)">
<g id="Vector">
</g>
<path id="Vector_2" d="M10 6.11111C10.9222 6.11111 11.6667 5.36667 11.6667 4.44444C11.6667 3.52222 10.9222 2.77778 10 2.77778C9.07778 2.77778 8.33333 3.52222 8.33333 4.44444C8.33333 5.36667 9.07778 6.11111 10 6.11111ZM10 8.33333C9.07778 8.33333 8.33333 9.07778 8.33333 10C8.33333 10.9222 9.07778 11.6667 10 11.6667C10.9222 11.6667 11.6667 10.9222 11.6667 10C11.6667 9.07778 10.9222 8.33333 10 8.33333ZM10 13.8889C9.07778 13.8889 8.33333 14.6333 8.33333 15.5556C8.33333 16.4778 9.07778 17.2222 10 17.2222C10.9222 17.2222 11.6667 16.4778 11.6667 15.5556C11.6667 14.6333 10.9222 13.8889 10 13.8889Z" fill="var(--fill-0, #545F7D)"/>
</g>
<defs>
<clipPath id="clip0_0_24">
<rect width="20" height="20" fill="white"/>
</clipPath>
</defs>
</svg>
