<svg width="16" height="16" viewBox="0 0 16 16" fill="none" xmlns="http://www.w3.org/2000/svg">
  <!-- Hand holding icon (positioned at bottom) -->
  <g transform="translate(-1, 5)">
    <path d="M17.625 6.78125L12.9 10.5625C12.545 10.8459 12.1042 11.0002 11.65 11H0.5C0.367392 11 0.240215 10.9473 0.146447 10.8536C0.0526784 10.7598 0 10.6326 0 10.5V7.5C0 7.36739 0.0526784 7.24021 0.146447 7.14645C0.240215 7.05268 0.367392 7 0.5 7H2.23125L3.68438 5.82187C4.3392 5.29055 5.15673 5.00039 6 5H11C11.1458 4.99973 11.2898 5.03133 11.4221 5.09258C11.5543 5.15384 11.6716 5.24327 11.7657 5.35461C11.8598 5.46594 11.9284 5.5965 11.9667 5.73714C12.005 5.87777 12.0121 6.02508 11.9875 6.16875C11.9063 6.65937 11.4437 7 10.9469 7H8.5C8.36739 7 8.24021 7.05268 8.14645 7.14645C8.05268 7.24021 8 7.36739 8 7.5C8 7.63261 8.05268 7.75979 8.14645 7.85355C8.24021 7.94732 8.36739 8 8.5 8H12.1969C12.6513 8.00118 13.0924 7.84679 13.4469 7.5625L16.3344 5.25312C16.7219 4.94062 17.2969 4.91875 17.6656 5.25312C17.7744 5.34992 17.8606 5.46929 17.9185 5.60289C17.9763 5.73649 18.0042 5.8811 18.0004 6.02663C17.9965 6.17215 17.9609 6.31507 17.8961 6.44542C17.8312 6.57576 17.7387 6.69037 17.625 6.78125V6.78125Z" fill="#213F7D"/>
  </g>
  <!-- Sack icon (positioned at top) -->
  <g transform="translate(3, 0)">
    <path opacity="0.4" d="M3.75 1.875H6.25L7.17578 0.485937C7.20717 0.438878 7.22521 0.384177 7.22796 0.327671C7.2307 0.271165 7.21806 0.214974 7.19137 0.165091C7.16469 0.115208 7.12496 0.0735042 7.07643 0.0444293C7.0279 0.0153544 6.97239 -1.39946e-06 6.91582 -4.76879e-09L3.08476 -4.76879e-09C3.02819 -1.39946e-06 2.97268 0.0153544 2.92415 0.0444293C2.87562 0.0735042 2.83589 0.115208 2.80921 0.165091C2.78252 0.214974 2.76988 0.271165 2.77262 0.327671C2.77537 0.384177 2.7934 0.438878 2.8248 0.485937L3.75 1.875ZM6.25 2.5H3.75C-0.202738 4.75391 0.00175372 7.74687 0.00175372 8.125C0.00175372 9.16016 0.960933 10 2.14394 10H7.85644C9.03964 10 9.99863 9.16016 9.99863 8.125C9.99863 7.75391 10.1812 4.74141 6.25 2.5Z" fill="#213F7D"/>
    <path d="M6.58203 2.03125V2.34375C6.58203 2.38519 6.56557 2.42493 6.53627 2.45424C6.50696 2.48354 6.46722 2.5 6.42578 2.5H3.57422C3.53278 2.5 3.49304 2.48354 3.46373 2.45424C3.43443 2.42493 3.41797 2.38519 3.41797 2.34375V2.03125C3.41797 1.98981 3.43443 1.95007 3.46373 1.92076C3.49304 1.89146 3.53278 1.875 3.57422 1.875H6.42578C6.46722 1.875 6.50696 1.89146 6.53627 1.92076C6.56557 1.95007 6.58203 1.98981 6.58203 2.03125Z" fill="#213F7D"/>
    <path d="M3.67198 7.6273V6.21304H3.125V5.78433H3.67198V4.375H4.44563L5.21436 5.78433H5.7367V4.375H6.32802V5.78433H6.875V6.21304H6.32802V7.6273H5.55437L4.77579 6.21304H4.2633V7.6273H3.67198ZM4.2633 5.73998V5.78433H4.53926L4.25345 5.20779H4.24852L4.2633 5.73998ZM5.74655 6.8093H5.75641L5.7367 6.29681V6.21304H5.44596L5.46567 6.24261L5.74655 6.8093Z" fill="#213F7D"/>
  </g>
</svg>
