<svg preserveAspectRatio="none" width="100%" height="100%" overflow="visible" style="display: block;" viewBox="0 0 16 16" fill="none" xmlns="http://www.w3.org/2000/svg">
<g id="sign-out 1" clip-path="url(#clip0_0_358)">
<path id="Vector" opacity="0.4" d="M5.625 14H3C2.20435 14 1.44129 13.6839 0.87868 13.1213C0.31607 12.5587 0 11.7956 0 11L0 5C0 4.20435 0.31607 3.44129 0.87868 2.87868C1.44129 2.31607 2.20435 2 3 2H5.625C5.72446 2 5.81984 2.03951 5.89016 2.10983C5.96049 2.18016 6 2.27554 6 2.375V3.625C6 3.72446 5.96049 3.81984 5.89016 3.89017C5.81984 3.96049 5.72446 4 5.625 4H3C2.73478 4 2.48043 4.10536 2.29289 4.29289C2.10536 4.48043 2 4.73478 2 5V11C2 11.2652 2.10536 11.5196 2.29289 11.7071C2.48043 11.8946 2.73478 12 3 12H5.625C5.72446 12 5.81984 12.0395 5.89016 12.1098C5.96049 12.1802 6 12.2755 6 12.375V13.625C6 13.7245 5.96049 13.8198 5.89016 13.8902C5.81984 13.9605 5.72446 14 5.625 14V14Z" fill="var(--fill-0, #213F7D)"/>
<path id="Vector_2" d="M11.0313 2.75938L15.7782 7.46563C15.8486 7.53537 15.9044 7.61836 15.9426 7.70981C15.9807 7.80126 16.0003 7.89936 16.0003 7.99844C16.0003 8.09753 15.9807 8.19563 15.9426 8.28708C15.9044 8.37853 15.8486 8.46152 15.7782 8.53126L11.0282 13.2438C10.8868 13.383 10.6962 13.4608 10.4978 13.4602C10.2994 13.4596 10.1093 13.3807 9.96879 13.2406L9.28442 12.5563C9.21302 12.4844 9.15688 12.3989 9.11935 12.3048C9.08181 12.2107 9.06367 12.11 9.06601 12.0087C9.06834 11.9075 9.0911 11.8077 9.13293 11.7155C9.17476 11.6232 9.23479 11.5404 9.30942 11.4719L11.7344 9.25001H5.75004C5.65148 9.25025 5.55385 9.23102 5.46274 9.19342C5.37163 9.15582 5.28886 9.10058 5.21916 9.03089C5.14947 8.9612 5.09423 8.87842 5.05663 8.78731C5.01903 8.69621 4.9998 8.59857 5.00004 8.50001V7.50001C4.9998 7.40145 5.01903 7.30381 5.05663 7.2127C5.09423 7.1216 5.14947 7.03882 5.21916 6.96913C5.28886 6.89943 5.37163 6.8442 5.46274 6.80659C5.55385 6.76899 5.65148 6.74976 5.75004 6.75001H11.7344L9.30942 4.52813C9.2352 4.45964 9.17559 4.37686 9.13415 4.28476C9.0927 4.19266 9.07029 4.09314 9.06825 3.99217C9.0662 3.89119 9.08457 3.79085 9.12226 3.69715C9.15994 3.60345 9.21616 3.51832 9.28754 3.44688L9.97192 2.76251C10.1121 2.62183 10.3024 2.5425 10.501 2.54192C10.6996 2.54133 10.8903 2.61954 11.0313 2.75938V2.75938Z" fill="var(--fill-0, #213F7D)"/>
</g>
<defs>
<clipPath id="clip0_0_358">
<rect width="16" height="16" fill="white"/>
</clipPath>
</defs>
</svg>
