<svg preserveAspectRatio="none" width="100%" height="100%" overflow="visible" style="display: block;" viewBox="0 0 10 10" fill="none" xmlns="http://www.w3.org/2000/svg">
<g id="sack 1" clip-path="url(#clip0_0_302)">
<path id="Vector" opacity="0.4" d="M3.75 1.875H6.25L7.17578 0.485937C7.20717 0.438878 7.22521 0.384177 7.22796 0.327671C7.2307 0.271165 7.21806 0.214974 7.19137 0.165091C7.16469 0.115208 7.12496 0.0735042 7.07643 0.0444293C7.0279 0.0153544 6.97239 -1.39946e-06 6.91582 -4.76879e-09L3.08476 -4.76879e-09C3.02819 -1.39946e-06 2.97268 0.0153544 2.92415 0.0444293C2.87562 0.0735042 2.83589 0.115208 2.80921 0.165091C2.78252 0.214974 2.76988 0.271165 2.77262 0.327671C2.77537 0.384177 2.7934 0.438878 2.8248 0.485937L3.75 1.875ZM6.25 2.5H3.75C-0.202738 4.75391 0.00175372 7.74687 0.00175372 8.125C0.00175372 9.16016 0.960933 10 2.14394 10H7.85644C9.03964 10 9.99863 9.16016 9.99863 8.125C9.99863 7.75391 10.1812 4.74141 6.25 2.5Z" fill="var(--fill-0, #213F7D)"/>
<path id="Vector_2" d="M6.58203 2.03125V2.34375C6.58203 2.38519 6.56557 2.42493 6.53627 2.45424C6.50696 2.48354 6.46722 2.5 6.42578 2.5H3.57422C3.53278 2.5 3.49304 2.48354 3.46373 2.45424C3.43443 2.42493 3.41797 2.38519 3.41797 2.34375V2.03125C3.41797 1.98981 3.43443 1.95007 3.46373 1.92076C3.49304 1.89146 3.53278 1.875 3.57422 1.875H6.42578C6.46722 1.875 6.50696 1.89146 6.53627 1.92076C6.56557 1.95007 6.58203 1.98981 6.58203 2.03125Z" fill="var(--fill-0, #213F7D)"/>
<path id="&#226;&#130;&#166;" d="M3.67198 7.6273V6.21304H3.125V5.78433H3.67198V4.375H4.44563L5.21436 5.78433H5.7367V4.375H6.32802V5.78433H6.875V6.21304H6.32802V7.6273H5.55437L4.77579 6.21304H4.2633V7.6273H3.67198ZM4.2633 5.73998V5.78433H4.53926L4.25345 5.20779H4.24852L4.2633 5.73998ZM5.74655 6.8093H5.75641L5.7367 6.29681V6.21304H5.44596L5.46567 6.24261L5.74655 6.8093Z" fill="var(--fill-0, #213F7D)"/>
</g>
<defs>
<clipPath id="clip0_0_302">
<rect width="10" height="10" fill="white"/>
</clipPath>
</defs>
</svg>
