<svg preserveAspectRatio="none" width="100%" height="100%" overflow="visible" style="display: block;" viewBox="0 0 16 15" fill="none" xmlns="http://www.w3.org/2000/svg">
<g id="Group">
<path id="Vector" d="M9.6075 5.83301C9.76923 5.8178 9.91708 5.9299 9.96004 6.08008L9.97957 6.1504L9.97371 6.15333C9.97404 6.15492 9.97436 6.15654 9.97469 6.15821C9.98292 6.19901 9.99429 6.25696 10.0059 6.32813C10.0292 6.47039 10.0545 6.66813 10.0616 6.90137C10.0759 7.36731 10.0189 7.98041 9.72957 8.58301L9.7286 8.58497C9.40063 9.24002 8.76344 9.97722 8.52547 10.2373C8.53333 10.3691 8.5439 10.477 8.55282 10.5537C8.55767 10.5955 8.56141 10.6285 8.56453 10.6504C8.5661 10.6614 8.5676 10.6703 8.56844 10.6758C8.56861 10.6769 8.56831 10.6779 8.56844 10.6787C8.61364 10.8683 8.47377 11.0471 8.29207 11.0703L8.27938 11.0723V11.0713H8.23153C8.08389 11.0713 7.92642 10.9696 7.89559 10.8066C7.8922 10.7968 7.88835 10.7879 7.8868 10.7813C7.88375 10.7682 7.88092 10.7518 7.87801 10.7344C7.87218 10.6995 7.86651 10.6535 7.86043 10.5986C7.84861 10.4918 7.83639 10.3479 7.82821 10.1777C7.82176 10.1621 7.81162 10.1396 7.79598 10.1084C7.78109 10.0787 7.76397 10.0429 7.74813 10.0059C7.4964 9.76088 7.11331 9.34788 6.81258 8.84278C6.5071 8.32951 6.2794 7.70941 6.37215 7.06934C6.37818 6.93251 6.4667 6.83039 6.57918 6.79102L6.63094 6.77735C7.17645 6.64292 7.58936 6.79361 7.8536 6.96192C8.19806 6.46866 8.60513 6.18718 8.94051 6.0293C9.11715 5.94618 9.27362 5.89655 9.38973 5.86817C9.4867 5.84448 9.55992 5.83641 9.59383 5.83399V5.83301C9.59641 5.83266 9.59908 5.8333 9.60164 5.83301C9.60386 5.83292 9.60583 5.83204 9.6075 5.83204V5.83301ZM9.33797 6.60743C9.17838 6.66689 8.97772 6.76978 8.77254 6.94239C8.88551 6.87972 9.02675 6.89149 9.13778 6.97071C9.2993 7.08621 9.31763 7.29441 9.20907 7.44629V7.44727C8.8296 7.9661 8.64522 8.55989 8.55575 9.09473C8.7611 8.82887 8.9662 8.5287 9.10262 8.25587C9.40832 7.64396 9.39916 6.9787 9.33797 6.60743ZM8.67 7.03223C8.50752 7.18821 8.34685 7.39177 8.20809 7.65821C8.11376 7.85542 8.06143 8.06034 8.0411 8.26465C8.17523 7.85113 8.37221 7.42939 8.66219 7.042C8.66463 7.03859 8.66748 7.03551 8.67 7.03223ZM7.02254 7.41993C7.02588 7.52115 7.03689 7.62267 7.05868 7.72364C7.08055 7.6625 7.12084 7.60604 7.18172 7.56251L7.19051 7.55665C7.26087 7.51651 7.34347 7.50004 7.42293 7.50977C7.32142 7.45878 7.18868 7.41993 7.02254 7.41993Z" fill="var(--fill-0, #213F7D)" stroke="var(--stroke-0, #213F7D)" stroke-width="0.2"/>
<path id="Vector_2" d="M5.00023 4.90462C5.18349 4.90475 5.34008 5.06118 5.34008 5.24446V11.3245C5.3399 11.5077 5.18338 11.6642 5.00023 11.6644C4.81699 11.6644 4.66057 11.5078 4.66039 11.3245V5.24446C4.66039 5.06111 4.81688 4.90462 5.00023 4.90462Z" fill="var(--fill-0, #213F7D)" stroke="var(--stroke-0, #213F7D)" stroke-width="0.2"/>
<path id="Vector_3" d="M3.40023 4.90462C3.58349 4.90475 3.74008 5.06118 3.74008 5.24446V11.3245C3.7399 11.5077 3.58338 11.6642 3.40023 11.6644C3.21699 11.6644 3.06057 11.5078 3.06039 11.3245V5.24446C3.06039 5.06111 3.21688 4.90462 3.40023 4.90462Z" fill="var(--fill-0, #213F7D)" stroke="var(--stroke-0, #213F7D)" stroke-width="0.2"/>
<path id="Vector_4" d="M11.4002 4.90462C11.5835 4.90475 11.7401 5.06118 11.7401 5.24446V11.3245C11.7399 11.5077 11.5834 11.6642 11.4002 11.6644C11.217 11.6644 11.0606 11.5078 11.0604 11.3245V5.24446C11.0604 5.06111 11.2169 4.90462 11.4002 4.90462Z" fill="var(--fill-0, #213F7D)" stroke="var(--stroke-0, #213F7D)" stroke-width="0.2"/>
<path id="Vector_5" d="M13.0002 4.90462C13.1835 4.90475 13.3401 5.06118 13.3401 5.24446V11.3245C13.3399 11.5077 13.1834 11.6642 13.0002 11.6644C12.817 11.6644 12.6606 11.5078 12.6604 11.3245V5.24446C12.6604 5.06111 12.8169 4.90462 13.0002 4.90462Z" fill="var(--fill-0, #213F7D)" stroke="var(--stroke-0, #213F7D)" stroke-width="0.2"/>
<path id="Vector_6" d="M8.03615 0.950195C8.1432 0.885802 8.28404 0.879375 8.38674 0.956055L13.7207 4.13281C13.8352 4.185 13.916 4.31474 13.916 4.44336V4.45605L13.9141 4.45508C13.9005 4.56708 13.8324 4.67149 13.7354 4.73145L13.7822 4.78418H2.83986C2.68445 4.78411 2.54208 4.67387 2.5176 4.52441L2.51857 4.52344C2.479 4.36607 2.55224 4.23376 2.67287 4.15332L2.67678 4.15039L8.03615 0.951172V0.950195ZM4.06545 4.10449H12.3194L8.19924 1.63184L4.06545 4.10449Z" fill="var(--fill-0, #213F7D)" stroke="var(--stroke-0, #213F7D)" stroke-width="0.2"/>
<path id="Vector_7" d="M13.56 11.7846C13.7433 11.7846 13.8998 11.9411 13.8998 12.1245C13.8997 12.3077 13.7432 12.4643 13.56 12.4643H2.84023C2.65696 12.4643 2.50052 12.3077 2.50039 12.1245C2.50039 11.9411 2.65688 11.7846 2.84023 11.7846H13.56Z" fill="var(--fill-0, #213F7D)" stroke="var(--stroke-0, #213F7D)" stroke-width="0.2"/>
<path id="Vector_8" d="M14.3596 12.5846C14.5429 12.5846 14.7004 12.7411 14.7004 12.9245C14.7003 13.1077 14.5428 13.2643 14.3596 13.2643H2.04023C1.85696 13.2643 1.70052 13.1077 1.70039 12.9245C1.70039 12.7411 1.85688 12.5846 2.04023 12.5846H14.3596Z" fill="var(--fill-0, #213F7D)" stroke="var(--stroke-0, #213F7D)" stroke-width="0.2"/>
<path id="Vector_9" d="M15.1602 13.3846C15.3434 13.3847 15.5 13.5412 15.5 13.7245C15.4999 13.9077 15.3434 14.0642 15.1602 14.0643H1.24023C1.05696 14.0643 0.900524 13.9077 0.900391 13.7245C0.900391 13.5411 1.05688 13.3846 1.24023 13.3846H15.1602Z" fill="var(--fill-0, #213F7D)" stroke="var(--stroke-0, #213F7D)" stroke-width="0.2"/>
</g>
</svg>
