<svg preserveAspectRatio="none" width="100%" height="100%" overflow="visible" style="display: block;" viewBox="0 0 16 15" fill="none" xmlns="http://www.w3.org/2000/svg">
<g id="piggy-bank 1" clip-path="url(#clip0_0_319)">
<path id="Vector" opacity="0.4" d="M15.5555 6.22222H14.7358C14.4921 5.67107 14.1388 5.17526 13.6975 4.765L14.2222 2.66667H13.3333C12.5166 2.66667 11.7947 3.04167 11.3055 3.62C11.0952 3.58944 10.8855 3.55556 10.6666 3.55556H7.11107C4.47718 3.55556 2.66662 5.74667 2.66662 8C2.66608 8.69007 2.82649 9.37076 3.1351 9.98798C3.44371 10.6052 3.89202 11.1419 4.4444 11.5556V13.7778C4.4444 13.8957 4.49123 14.0087 4.57457 14.092C4.65792 14.1754 4.77097 14.2222 4.88884 14.2222H6.66662C6.7845 14.2222 6.89754 14.1754 6.98089 14.092C7.06424 14.0087 7.11107 13.8957 7.11107 13.7778V12.4444H10.6666V13.7778C10.6666 13.8957 10.7134 14.0087 10.7968 14.092C10.8801 14.1754 10.9932 14.2222 11.1111 14.2222H12.8888C13.0067 14.2222 13.1198 14.1754 13.2031 14.092C13.2865 14.0087 13.3333 13.8957 13.3333 13.7778V11.5356C13.6617 11.2875 13.9541 10.995 14.2022 10.6667H15.5555C15.6734 10.6667 15.7864 10.6198 15.8698 10.5365C15.9531 10.4531 16 10.3401 16 10.2222V6.66667C16 6.54879 15.9531 6.43575 15.8698 6.3524C15.7864 6.26905 15.6734 6.22222 15.5555 6.22222ZM12 8C11.9121 8 11.8261 7.97393 11.753 7.9251C11.6799 7.87626 11.623 7.80685 11.5893 7.72564C11.5557 7.64443 11.5469 7.55506 11.5641 7.46885C11.5812 7.38263 11.6235 7.30344 11.6857 7.24129C11.7478 7.17913 11.827 7.1368 11.9132 7.11965C11.9995 7.1025 12.0888 7.1113 12.17 7.14494C12.2512 7.17858 12.3207 7.23555 12.3695 7.30864C12.4183 7.38172 12.4444 7.46765 12.4444 7.55556C12.4444 7.67343 12.3976 7.78648 12.3142 7.86983C12.2309 7.95318 12.1178 8 12 8Z" fill="var(--fill-0, #213F7D)"/>
<path id="Vector_2" d="M1.42383 7.09778C1.33804 7.08034 1.25651 7.04618 1.18392 6.99724C1.11132 6.94829 1.04908 6.88553 1.00074 6.81254C0.952401 6.73954 0.918915 6.65773 0.902192 6.57179C0.88547 6.48585 0.885839 6.39746 0.903279 6.31166C0.964946 5.995 1.26106 5.77777 1.58328 5.77777H1.61106C1.65526 5.77777 1.69765 5.76022 1.72891 5.72896C1.76016 5.6977 1.77772 5.65531 1.77772 5.61111V5.05555C1.77772 5.01135 1.76016 4.96896 1.72891 4.9377C1.69765 4.90645 1.65526 4.88889 1.61106 4.88889C0.81939 4.88889 0.113834 5.45555 0.013001 6.23944C0.00421065 6.30602 -0.000150791 6.37312 -5.45476e-05 6.44028C-0.000570607 6.85338 0.163019 7.24977 0.454734 7.54226C0.74645 7.83476 1.1424 7.99941 1.5555 8H2.66661C2.6669 7.70126 2.69828 7.40336 2.76022 7.11111H1.5555C1.51128 7.11111 1.46716 7.10664 1.42383 7.09778V7.09778ZM11.9999 7.11111C11.912 7.11111 11.8261 7.13717 11.753 7.18601C11.6799 7.23485 11.623 7.30426 11.5893 7.38547C11.5557 7.46668 11.5469 7.55605 11.564 7.64226C11.5812 7.72847 11.6235 7.80767 11.6857 7.86982C11.7478 7.93198 11.827 7.97431 11.9132 7.99146C11.9995 8.00861 12.0888 7.9998 12.17 7.96617C12.2512 7.93253 12.3207 7.87556 12.3695 7.80247C12.4183 7.72938 12.4444 7.64346 12.4444 7.55555C12.4444 7.43768 12.3976 7.32463 12.3142 7.24128C12.2309 7.15793 12.1178 7.11111 11.9999 7.11111ZM8.51383 -2.8278e-06C8.07582 -0.000110638 7.64453 0.107678 7.25806 0.313836C6.8716 0.519995 6.54187 0.818176 6.29801 1.18203C6.05415 1.54588 5.90367 1.9642 5.85988 2.40002C5.81608 2.83583 5.88031 3.27573 6.04689 3.68083C6.39539 3.597 6.75262 3.55495 7.11106 3.55555H10.6666C10.7847 3.5565 10.9026 3.56466 11.0197 3.58C11.1661 3.17708 11.2134 2.7448 11.1574 2.31976C11.1014 1.89472 10.9438 1.48943 10.6979 1.13821C10.4521 0.786985 10.1252 0.500168 9.74506 0.30204C9.36488 0.103912 8.94255 0.000306891 8.51383 -2.8278e-06V-2.8278e-06Z" fill="var(--fill-0, #213F7D)"/>
</g>
<defs>
<clipPath id="clip0_0_319">
<rect width="16" height="14.2222" fill="white"/>
</clipPath>
</defs>
</svg>
