<svg preserveAspectRatio="none" width="100%" height="100%" overflow="visible" style="display: block;" viewBox="0 0 16 13" fill="none" xmlns="http://www.w3.org/2000/svg">
<g id="user-cog 1" clip-path="url(#clip0_0_306)">
<path id="Vector" opacity="0.4" d="M15.9075 9.70502L15.2625 9.33251C15.3275 8.98049 15.3275 8.61954 15.2625 8.26752L15.9075 7.89501C15.9435 7.87442 15.9714 7.84207 15.9864 7.80338C16.0014 7.7647 16.0027 7.72203 15.99 7.68251C15.8238 7.14828 15.5402 6.65798 15.16 6.24751C15.132 6.217 15.0945 6.19691 15.0536 6.19055C15.0127 6.18419 14.9709 6.19194 14.935 6.21252L14.29 6.58501C14.0176 6.35274 13.7049 6.17226 13.3675 6.05252V5.30752C13.3675 5.26614 13.3533 5.22601 13.3274 5.19374C13.3015 5.16147 13.2654 5.139 13.225 5.13001C12.6801 5.0075 12.1149 5.0075 11.57 5.13001C11.5296 5.139 11.4935 5.16147 11.4676 5.19374C11.4417 5.22601 11.4275 5.26614 11.4275 5.30752V6.05252C11.0901 6.17226 10.7774 6.35274 10.505 6.58501L9.86 6.21252C9.82407 6.19203 9.78225 6.18433 9.74138 6.19069C9.70051 6.19705 9.66301 6.21708 9.635 6.24751C9.25479 6.65798 8.97121 7.14828 8.805 7.68251C8.79291 7.72206 8.79448 7.76451 8.80944 7.80305C8.82441 7.8416 8.8519 7.87399 8.8875 7.89501L9.5325 8.26752C9.4675 8.61954 9.4675 8.98049 9.5325 9.33251L8.8875 9.70502C8.85147 9.72561 8.82361 9.75796 8.8086 9.79665C8.79358 9.83533 8.79231 9.87801 8.805 9.91752C8.97179 10.4515 9.2553 10.9417 9.635 11.3525C9.66296 11.383 9.70047 11.4031 9.74136 11.4095C9.78225 11.4158 9.82409 11.4081 9.86 11.3875L10.505 11.015C10.7774 11.2473 11.0901 11.4278 11.4275 11.5475V12.2925C11.4275 12.3339 11.4417 12.374 11.4676 12.4063C11.4935 12.4386 11.5296 12.461 11.57 12.47C12.1149 12.5925 12.6801 12.5925 13.225 12.47C13.2654 12.461 13.3015 12.4386 13.3274 12.4063C13.3533 12.374 13.3675 12.3339 13.3675 12.2925V11.5475C13.7049 11.4278 14.0176 11.2473 14.29 11.015L14.935 11.3875C14.9709 11.408 15.0127 11.4157 15.0536 11.4093C15.0945 11.403 15.132 11.383 15.16 11.3525C15.5402 10.9421 15.8238 10.4518 15.99 9.91752C16.0021 9.87798 16.0005 9.83552 15.9856 9.79698C15.9706 9.75843 15.9431 9.72604 15.9075 9.70502V9.70502ZM12.4 10.0125C12.1602 10.0125 11.9258 9.9414 11.7264 9.80817C11.527 9.67494 11.3716 9.48557 11.2798 9.26402C11.188 9.04246 11.164 8.79867 11.2108 8.56347C11.2576 8.32827 11.3731 8.11222 11.5426 7.94265C11.7122 7.77308 11.9283 7.6576 12.1635 7.61081C12.3987 7.56403 12.6424 7.58804 12.864 7.67981C13.0856 7.77158 13.2749 7.92699 13.4082 8.12639C13.5414 8.32578 13.6125 8.56021 13.6125 8.80002C13.6122 9.12149 13.4843 9.4297 13.257 9.65702C13.0297 9.88433 12.7215 10.0122 12.4 10.0125V10.0125Z" fill="var(--fill-0, #213F7D)"/>
<path id="Vector_2" d="M10.63 12.2924V12.0624C10.5725 12.0324 10.515 11.9974 10.46 11.9649L10.2625 12.0799C10.0697 12.1918 9.84461 12.2347 9.62421 12.2015C9.40382 12.1684 9.20129 12.0611 9.05 11.8974C8.58975 11.3994 8.24641 10.805 8.045 10.1574C7.97798 9.94453 7.98582 9.7151 8.06723 9.50726C8.14863 9.29942 8.2987 9.1257 8.4925 9.01494L8.69 8.89994C8.6875 8.83494 8.6875 8.76994 8.69 8.70494L8.4925 8.58994C8.29857 8.47933 8.14838 8.30561 8.06696 8.09773C7.98554 7.88985 7.97778 7.66035 8.045 7.44744C8.0675 7.37494 8.1 7.30244 8.125 7.22994C8.03 7.22244 7.9375 7.19994 7.84 7.19994H7.4225C6.85106 7.46347 6.22927 7.59993 5.6 7.59993C4.97073 7.59993 4.34894 7.46347 3.7775 7.19994H3.36C2.46893 7.20014 1.61442 7.55421 0.984341 8.18428C0.354262 8.81436 0.000198832 9.66888 0 10.5599L0 11.5999C0 11.9182 0.126428 12.2234 0.351472 12.4485C0.576516 12.6735 0.88174 12.7999 1.2 12.7999H10C10.243 12.7997 10.4801 12.7256 10.68 12.5874C10.6483 12.4923 10.6314 12.3928 10.63 12.2924V12.2924ZM5.6 6.39994C6.2329 6.39994 6.85159 6.21227 7.37782 5.86065C7.90406 5.50903 8.31421 5.00925 8.55641 4.42453C8.79862 3.83981 8.86199 3.19639 8.73851 2.57566C8.61504 1.95492 8.31027 1.38473 7.86274 0.937202C7.41521 0.489674 6.84503 0.184904 6.22429 0.061431C5.60355 -0.0620417 4.96014 0.00132896 4.37541 0.243529C3.79069 0.48573 3.29092 0.895882 2.9393 1.42212C2.58768 1.94836 2.4 2.56704 2.4 3.19994C2.4 4.04864 2.73714 4.86257 3.33726 5.46269C3.93737 6.0628 4.75131 6.39994 5.6 6.39994Z" fill="var(--fill-0, #213F7D)"/>
</g>
<defs>
<clipPath id="clip0_0_306">
<rect width="16" height="12.8" fill="white"/>
</clipPath>
</defs>
</svg>
