<svg preserveAspectRatio="none" width="100%" height="100%" overflow="visible" style="display: block;" viewBox="0 0 16 16" fill="none" xmlns="http://www.w3.org/2000/svg">
<g id="galaxy 1" clip-path="url(#clip0_0_339)">
<path id="Vector" opacity="0.4" d="M4.76287 11.8763C4.27077 11.7742 3.79418 11.608 3.34527 11.382C2.56299 11.498 1.76395 11.4051 1.02913 11.1127C0.608969 10.9443 0.239587 11.4464 0.525962 11.7969C0.960084 12.3262 1.47961 12.7791 2.06306 13.137C3.57367 14.0704 5.44707 14.2436 7.10013 13.6828C7.5434 13.0917 7.83336 12.4 7.94412 11.6695C6.92102 12.0204 5.82278 12.0918 4.76287 11.8763V11.8763ZM4.33062 7.94415C3.97963 6.92104 3.90824 5.82276 4.12383 4.76282C4.22593 4.27075 4.39205 3.79418 4.61797 3.34528C4.50214 2.56296 4.59503 1.76393 4.88725 1.02906C5.05571 0.609015 4.55352 0.239448 4.20306 0.525763C3.67382 0.959854 3.22092 1.47941 2.8631 2.06293C1.92976 3.57361 1.75642 5.44696 2.31721 7.10004C2.90836 7.54333 3.60008 7.83333 4.33062 7.94415V7.94415ZM11.6694 8.05585C12.0204 9.07896 12.0918 10.1772 11.8762 11.2372C11.7741 11.7292 11.608 12.2058 11.3821 12.6547C11.4979 13.437 11.405 14.2361 11.1128 14.9709C10.9443 15.391 11.4465 15.7606 11.797 15.4742C12.3262 15.0401 12.7791 14.5206 13.1369 13.9371C14.0703 12.4264 14.2436 10.553 13.6828 8.89996C13.0917 8.45667 12.4 8.16667 11.6694 8.05585V8.05585ZM15.4741 4.20307C15.04 3.67381 14.5205 3.22085 13.937 2.86292C12.4264 1.92963 10.553 1.75635 8.89992 2.31714C8.45664 2.90827 8.16667 3.59999 8.05593 4.33051C9.07903 3.97958 10.1773 3.90819 11.2372 4.12372C11.7293 4.22584 12.2059 4.39198 12.6548 4.61792C13.4371 4.50198 14.2361 4.59488 14.9709 4.88721C15.3911 5.05567 15.7605 4.55353 15.4741 4.20307Z" fill="var(--fill-0, #213F7D)"/>
<path id="Vector_2" d="M15.8305 8.56573C15.3056 6.34368 13.4762 4.57079 11.2372 4.12371C10.1773 3.90818 9.07902 3.97957 8.05592 4.3305C8.16965 3.57379 8.47482 2.85868 8.94249 2.25301C9.41016 1.64734 10.0248 1.1712 10.7281 0.869747C11.1443 0.691769 11.0505 0.0754356 10.6002 0.0300875C9.91901 -0.0371442 9.23136 0.00995253 8.56568 0.169431C6.34378 0.694333 4.57084 2.5238 4.12382 4.76281C3.90823 5.82275 3.97962 6.92103 4.33061 7.94414C3.57389 7.83039 2.85878 7.52519 2.25311 7.05751C1.64744 6.58984 1.17129 5.97518 0.869822 5.27184C0.691845 4.85577 0.0755158 4.94946 0.0301074 5.39977C-0.0371331 6.08097 0.00998406 6.7686 0.169511 7.43426C0.694409 9.6563 2.52386 11.4292 4.76286 11.8763C5.82277 12.0918 6.92102 12.0204 7.94411 11.6695C7.83038 12.4262 7.52521 13.1413 7.05754 13.747C6.58987 14.3526 5.97522 14.8288 5.27189 15.1302C4.85575 15.3082 4.9495 15.9245 5.39982 15.9699C6.08102 16.0371 6.76867 15.99 7.43435 15.8306C9.65625 15.3056 11.4292 13.4762 11.8762 11.2372C12.0918 10.1772 12.0204 9.07895 11.6694 8.05584C12.4261 8.1696 13.1412 8.47479 13.7469 8.94247C14.3526 9.41015 14.8287 10.0248 15.1302 10.7281C15.3082 11.1442 15.9245 11.0505 15.9699 10.6002C16.0372 9.91902 15.99 9.23138 15.8305 8.56573V8.56573ZM8.00002 9.49999C7.70334 9.49999 7.41333 9.41202 7.16666 9.2472C6.91998 9.08238 6.72772 8.84811 6.61419 8.57402C6.50066 8.29993 6.47095 7.99833 6.52882 7.70736C6.5867 7.41639 6.72956 7.14912 6.93934 6.93934C7.14912 6.72956 7.41639 6.58669 7.70736 6.52882C7.99834 6.47094 8.29994 6.50064 8.57403 6.61417C8.84812 6.7277 9.08239 6.91996 9.24721 7.16664C9.41203 7.41331 9.5 7.70332 9.5 7.99999C9.5 8.39781 9.34196 8.77934 9.06066 9.06064C8.77936 9.34194 8.39784 9.49998 8.00002 9.49999Z" fill="var(--fill-0, #213F7D)"/>
</g>
<defs>
<clipPath id="clip0_0_339">
<rect width="16" height="16" fill="white"/>
</clipPath>
</defs>
</svg>
