<svg preserveAspectRatio="none" width="100%" height="100%" overflow="visible" style="display: block;" viewBox="0 0 16 16" fill="none" xmlns="http://www.w3.org/2000/svg">
<g id="np_star_1171151_000000 1" clip-path="url(#clip0_0_332)">
<path id="Vector" fill-rule="evenodd" clip-rule="evenodd" d="M7.98439 0.959999C7.85189 0.966874 7.73688 1.05437 7.69564 1.18062L6.0894 5.99998H0.945076V6.00061C0.806952 6.00061 0.684452 6.08936 0.641956 6.22061C0.598832 6.35186 0.645081 6.49562 0.755707 6.57811L4.93443 9.63379L3.32819 14.6213V14.6207C3.28506 14.7532 3.33256 14.8976 3.44506 14.9788C3.55756 15.0607 3.70943 15.0601 3.82132 14.9782L8.00004 11.9225L12.1788 14.9782C12.2906 15.0601 12.4425 15.0607 12.555 14.9788C12.6675 14.8976 12.715 14.7532 12.6719 14.6207L11.0656 9.63317L15.2444 6.57749V6.57811C15.355 6.49561 15.4012 6.35186 15.3581 6.22061C15.3156 6.08936 15.1931 6.00061 15.055 6.00061H9.91068L8.30444 1.18125V1.18062C8.26007 1.04375 8.12881 0.953119 7.98444 0.959999H7.98439ZM8.00001 2.29374L9.37565 6.41998V6.42061C9.41814 6.55186 9.54128 6.64123 9.68001 6.64061H14.0738L10.4987 9.25501V9.25563C10.3875 9.33688 10.3406 9.48063 10.3831 9.61251L11.7587 13.8807L8.1893 11.2712H8.18868C8.07617 11.1887 7.92368 11.1887 7.81117 11.2712L4.24173 13.8807L5.61736 9.61251H5.61674C5.65924 9.48064 5.61236 9.33688 5.50111 9.25563L1.92607 6.64123H6.31983V6.64061C6.45858 6.64123 6.5817 6.55186 6.6242 6.42061L7.99983 2.29437L8.00001 2.29374Z" fill="var(--fill-0, #E9B200)"/>
</g>
<defs>
<clipPath id="clip0_0_332">
<rect width="16" height="16" fill="white"/>
</clipPath>
</defs>
</svg>
